<svg class="svg-icon" style="width: 1em; height: 1em;vertical-align: middle;fill: #f2f6f7;overflow: hidden;" viewBox="0 0 1024 1024" version="1.1" xmlns="http://www.w3.org/2000/svg">
<path d="M424.9 547h209.2c13.6 58.2 65.9 101.8 128.2 101.8 72.6 0 131.6-59.1 131.6-131.6 0-72.6-59.1-131.6-131.6-131.6-57.9 0-107.1 37.5-124.7 89.5H421.4c-3.6-10.6-8.5-20.6-14.6-29.9l147.9-87.3c23.8 23.3 56.3 37.7 92.2 37.7 72.6 0 131.6-59.1 131.6-131.6 0-72.6-59.1-131.6-131.6-131.6-72.6 0-131.6 59.1-131.6 131.6 0 10.8 1.3 21.3 3.8 31.4L348.3 396.1c-15.9-6.8-33.3-10.6-51.7-10.6-72.6 0-131.6 59.1-131.6 131.6 0 72.6 59.1 131.6 131.6 131.6 24.8 0 48-6.9 67.9-18.9l157.4 92.8c-4.3 13-6.6 26.9-6.6 41.3 0 72.6 59.1 131.6 131.6 131.6 72.6 0 131.6-59.1 131.6-131.6s-59.1-131.6-131.6-131.6c-32.1 0-61.5 11.5-84.4 30.7l-148-87.3c4.5-9 8-18.6 10.4-28.7z m337.5-89.5c32.9 0 59.6 26.8 59.6 59.6s-26.8 59.6-59.6 59.6-59.6-26.8-59.6-59.6 26.7-59.6 59.6-59.6zM646.9 204.3c32.9 0 59.6 26.8 59.6 59.6s-26.8 59.6-59.6 59.6-59.6-26.8-59.6-59.6 26.7-59.6 59.6-59.6zM296.6 576.8c-32.9 0-59.6-26.8-59.6-59.6s26.8-59.6 59.6-59.6 59.6 26.8 59.6 59.6-26.7 59.6-59.6 59.6z m350.3 127.6c32.9 0 59.6 26.8 59.6 59.6s-26.8 59.6-59.6 59.6-59.6-26.8-59.6-59.6 26.7-59.6 59.6-59.6z"  />
</svg>